# xmcd
#
# Track frame offsets:
#	150
#	15497
#	29554
#	47547
#	69340
#	83971
#	104531
#	119296
#	140725
#	159428
#	174637
#	188727
#	206583
#	228383
#	243018
#	263637
#	278342
#	299747
#
# Disc length: 4250 seconds
#
# Revision: 1
# Processed by: cddbd v1.5.1PL2 Copyright (c) Steve Scherf et al.
# Submitted via: audiograbber 1.83.01
#
DISCID=f9109812
DTITLE=Pocket Songs - ps1471
DYEAR=1900
DGENRE=
TTITLE0=Brooks, Garth - Right Now
TTITLE1=Tippin, Aaron - What This Country Needs
TTITLE2=White Bryan - God Gave Me You
TTITLE3=McGraw, Tim - My Best Friend
TTITLE4=Wariner, Steve - I'm Already Taken
TTITLE5=Streisand, Barbara and Gill, Vince - If You Ever Leave Me
TTITLE6=Wynonna - Can't Nobody Love You Like I Do
TTITLE7=Dixie Chicks - Cowboy Take Me Away
TTITLE8=McGraw, Tim and Hill, Faith - Let's Make Love
TTITLE9=Brooks, Garth - Right Now (Vocal)
TTITLE10=Tippin, Aaron - What This Country Needs (Vocal)
TTITLE11=White, Bryan - God Gave Me You (Vocal)
TTITLE12=McGraw, Tim - My Best Friend (Vocal)
TTITLE13=Wariner, Steve - I'm Already Taken (Vocal)
TTITLE14=Streisand, Barbara and Gill, Vince - If You Ever Leave Me (Vocal)
TTITLE15=Wynonna - Can't Nobody Love You Like I Do (Vocal)
TTITLE16=Dixie Chicks - Cowboy Take Me Away (Vocal)
TTITLE17=McGraw, Tim and Hill, Faith - Let's Make Love (Vocal)
EXTD=
EXTT0=
EXTT1=
EXTT2=
EXTT3=
EXTT4=
EXTT5=
EXTT6=
EXTT7=
EXTT8=
EXTT9=
EXTT10=
EXTT11=
EXTT12=
EXTT13=
EXTT14=
EXTT15=
EXTT16=
EXTT17=
PLAYORDER=
